<svg width="64" height="38" viewBox="0 0 64 38" fill="none" xmlns="http://www.w3.org/2000/svg">
<path d="M48.3128 12.8846L53.5595 3.5716C54.0158 2.66373 53.6736 1.55085 52.8182 1.08228C51.9912 0.642984 50.9647 0.906559 50.4514 1.72657L45.0907 11.2153C36.9355 7.67165 27.7538 7.67165 19.5986 11.2153L14.2378 1.72657C13.6961 0.877273 12.584 0.613697 11.7571 1.14085C10.9586 1.668 10.702 2.7223 11.1297 3.5716L16.3764 12.8846C7.53689 18.0682 1.77693 27.4105 0.978516 37.8364H63.7108C62.9123 27.4105 57.1524 18.0682 48.3128 12.8846ZM18.0873 29.7827C16.1198 29.7827 14.523 28.1426 14.523 26.1219C14.523 24.1012 16.1198 22.4611 18.0873 22.4611C20.0548 22.4611 21.6516 24.1012 21.6516 26.1219C21.6516 28.1426 20.0548 29.7827 18.0873 29.7827ZM46.602 29.7827C44.6345 29.7827 43.0376 28.1426 43.0376 26.1219C43.0376 24.1012 44.6345 22.4611 46.602 22.4611C48.5695 22.4611 50.1663 24.1012 50.1663 26.1219C50.1663 28.1426 48.5695 29.7827 46.602 29.7827Z" fill="white"/>
</svg>
