<svg width="61" height="61" viewBox="0 0 61 61" fill="none" xmlns="http://www.w3.org/2000/svg">
<g clip-path="url(#clip0)">
<path d="M30.3892 -0.000164961C21.395 0.041193 12.6242 4.06365 6.761 11.3469L16.1524 25.7819C18.5266 19.0132 25.337 14.6874 32.4593 15.4088L57.721 16.7545C55.1393 11.6289 51.0871 7.17154 45.7468 4.08842C40.9021 1.29127 35.608 -0.024199 30.3892 -0.000164961H30.3892ZM4.98065 13.7982C1.83256 18.5968 0 24.335 0 30.5015C0 45.7368 11.1781 58.366 25.7783 60.6353L33.582 45.2854C26.533 46.6136 19.3824 42.8764 16.446 36.3476L4.98065 13.7982ZM58.9542 19.5223L41.7572 20.4372C46.432 25.8777 46.7722 33.9388 42.5864 39.7462L28.7899 60.9498C34.5197 61.2768 40.4063 59.9959 45.7466 56.9127C58.9408 49.2951 64.2889 33.301 58.9541 19.5223L58.9542 19.5223ZM30.4978 20.2161C24.8181 20.2161 20.2124 24.8218 20.2124 30.5015C20.2124 36.1812 24.8181 40.7869 30.4978 40.7869C36.1775 40.7869 40.7832 36.1812 40.7832 30.5015C40.7832 24.8218 36.1775 20.2161 30.4978 20.2161V20.2161Z" fill="white"/>
</g>
<defs>
<clipPath id="clip0">
<rect width="61" height="61" fill="white"/>
</clipPath>
</defs>
</svg>
