<svg width="44" height="43" viewBox="0 0 44 43" fill="none" xmlns="http://www.w3.org/2000/svg">
<path d="M16.0718 18.5114C15.4705 18.5114 14.8826 18.6897 14.3826 19.0238C13.8826 19.3579 13.4928 19.8328 13.2627 20.3884C13.0326 20.944 12.9724 21.5554 13.0897 22.1452C13.207 22.735 13.4966 23.2768 13.9218 23.702C14.3471 24.1272 14.8888 24.4168 15.4787 24.5342C16.0685 24.6515 16.6798 24.5913 17.2354 24.3611C17.791 24.131 18.2659 23.7413 18.6 23.2412C18.9341 22.7412 19.1124 22.1534 19.1124 21.552C19.1165 21.1516 19.0406 20.7543 18.8893 20.3836C18.7379 20.0129 18.5141 19.6761 18.2309 19.3929C17.9478 19.1097 17.611 18.8859 17.2402 18.7346C16.8695 18.5832 16.4723 18.5073 16.0718 18.5114Z" fill="white"/>
<path d="M22.153 35.2349C20.3969 35.2364 18.6678 34.8027 17.1203 33.9726C15.5728 33.1425 14.2552 31.9418 13.2852 30.4779L15.818 28.7949C16.5113 29.8405 17.4527 30.6981 18.5581 31.2915C19.6634 31.8848 20.8985 32.1953 22.153 32.1953C23.4076 32.1953 24.6426 31.8848 25.748 31.2915C26.8534 30.6981 27.7948 29.8405 28.4881 28.7949L31.0209 30.4779C30.0509 31.9418 28.7333 33.1425 27.1858 33.9726C25.6383 34.8027 23.9091 35.2364 22.153 35.2349Z" fill="white"/>
<path d="M28.234 18.5114C27.6326 18.5114 27.0447 18.6897 26.5447 19.0238C26.0447 19.3579 25.6549 19.8328 25.4248 20.3884C25.1947 20.944 25.1345 21.5554 25.2518 22.1452C25.3691 22.735 25.6587 23.2768 26.0839 23.702C26.5092 24.1272 27.0509 24.4168 27.6408 24.5342C28.2306 24.6515 28.8419 24.5913 29.3975 24.3611C29.9531 24.131 30.428 23.7413 30.7621 23.2412C31.0962 22.7412 31.2746 22.1534 31.2746 21.552C31.2786 21.1516 31.2027 20.7543 31.0514 20.3836C30.9 20.0129 30.6762 19.6761 30.393 19.3929C30.1099 19.1097 29.7731 18.8859 29.4023 18.7346C29.0316 18.5832 28.6344 18.5073 28.234 18.5114Z" fill="white"/>
<path d="M43.4374 21.5522V18.5116H40.3969V12.4304C40.3948 10.8182 39.7535 9.27262 38.6135 8.13261C37.4735 6.99261 35.9279 6.35126 34.3157 6.34925H31.2751V0.268066H28.2345V6.34925H16.0721V0.268066H13.0315V6.34925H9.99092C8.37871 6.35126 6.8331 6.99261 5.69309 8.13261C4.55309 9.27262 3.91175 10.8182 3.90973 12.4304V18.5116H0.869141V21.5522H3.90973V29.1537H0.869141V32.1943H3.90973V36.7552C3.91175 38.3674 4.55309 39.913 5.69309 41.053C6.8331 42.193 8.37871 42.8344 9.99092 42.8364H34.3157C35.9279 42.8344 37.4735 42.193 38.6135 41.053C39.7535 39.913 40.3948 38.3674 40.3969 36.7552V32.1943H43.4374V29.1537H40.3969V21.5522H43.4374ZM37.3563 36.7552C37.3555 37.5614 37.0349 38.3343 36.4648 38.9043C35.8948 39.4744 35.1218 39.795 34.3157 39.7958H9.99092C9.18475 39.795 8.41183 39.4744 7.84179 38.9043C7.27174 38.3343 6.95113 37.5614 6.95033 36.7552V12.4304C6.95113 11.6243 7.27174 10.8514 7.84179 10.2813C8.41183 9.71126 9.18475 9.39065 9.99092 9.38985H34.3157C35.1218 9.39065 35.8948 9.71126 36.4648 10.2813C37.0349 10.8514 37.3555 11.6243 37.3563 12.4304V36.7552Z" fill="white"/>
</svg>
