<svg width="30" height="30" viewBox="0 0 36 36" fill="none" xmlns="http://www.w3.org/2000/svg">
<path d="M17.8776 0.822266C8.26163 0.822266 0.466797 8.6171 0.466797 18.2331C0.466797 26.9629 6.89052 34.191 15.2695 35.4498C16.12 35.5778 16.9914 33.0323 17.8776 33.0323C18.6777 33.0323 19.4655 35.59 20.2377 35.4855C28.7376 34.3338 35.2885 27.0491 35.2885 18.2331C35.2885 8.6171 27.4936 0.822266 17.8776 0.822266Z" fill="#EAEAEA"/>
<path opacity="0.05" d="M21.1054 15.7695C21.1054 14.5299 21.371 13.0526 22.635 13.0526H26.3635L26.3626 8.16275L26.3191 7.42105L25.5826 7.32181C25.0534 7.25043 23.9521 7.10156 21.9211 7.10156C17.0731 7.10156 14.4031 9.98741 14.4031 15.2272V17.4018H10.0957L10.0957 23.7202H14.4031L14.4031 35.2967C15.5261 35.5239 16.6883 35.6449 17.8783 35.6449C18.9822 35.6449 20.0582 35.5308 21.1054 35.3341V23.7193H25.4869L26.4636 17.4009H21.1054V15.7695Z" fill="#EAEAEA"/>
<path opacity="0.05" d="M20.6705 15.7688C20.6705 14.591 20.9255 12.6166 22.6353 12.6166H25.9285V8.1873L25.9059 7.80426L25.5289 7.7529C25.0092 7.68238 23.9289 7.53613 21.9223 7.53613C17.2884 7.53613 14.8396 10.1956 14.8396 15.2265V17.8364H10.5312V23.2842H14.8387L14.8387 35.3621C15.8276 35.5362 16.8392 35.6442 17.8786 35.6442C18.831 35.6442 19.759 35.5467 20.6705 35.3996V23.2834H25.1137L25.9555 17.8355H20.6696V15.7688H20.6705Z" fill="#EAEAEA"/>
<path d="M20.2335 22.8484H24.7394L25.4472 18.2711H20.2335V15.7691C20.2335 13.8679 20.8551 12.1816 22.6336 12.1816H25.4916V8.18757C24.9893 8.11967 23.9272 7.97168 21.9206 7.97168C17.7298 7.97168 15.2732 10.1846 15.2732 15.2268V18.2719H10.9648V22.8492H15.2723L15.2723 35.4503C16.1254 35.5774 16.9899 35.6445 17.8769 35.6445C18.6787 35.6445 19.4613 35.5905 20.2335 35.486V22.8484Z" fill="#373737"/>
</svg>
