<svg width="30" height="30" viewBox="0 0 35 36" fill="none" xmlns="http://www.w3.org/2000/svg">
<path d="M27.0953 35.2701L7.76017 35.2885C3.50643 35.2923 0.0232055 31.8159 0.0183717 27.5621L3.22299e-06 8.22697C-0.00386381 3.97323 3.4726 0.490002 7.72633 0.485169L27.0615 0.4668C31.3152 0.462933 34.7985 3.9394 34.8033 8.19313L34.8217 27.5283C34.8265 31.783 31.3491 35.2662 27.0953 35.2701Z" fill="#EAEAEA"/>
<path d="M27.0953 35.2701L7.76017 35.2885C3.50643 35.2923 0.0232055 31.8159 0.0183717 27.5621L3.22299e-06 8.22697C-0.00386381 3.97323 3.4726 0.490002 7.72633 0.485169L27.0615 0.4668C31.3152 0.462933 34.7985 3.9394 34.8033 8.19313L34.8217 27.5283C34.8265 31.783 31.3491 35.2662 27.0953 35.2701Z" fill="#EAEAEA"/>
<path d="M17.4118 24.6459C13.6811 24.6459 10.6445 21.6103 10.6445 17.8786C10.6445 14.1469 13.6811 11.1113 17.4118 11.1113C21.1426 11.1113 24.1791 14.1469 24.1791 17.8786C24.1791 21.6103 21.1426 24.6459 17.4118 24.6459ZM17.4118 13.0448C14.7465 13.0448 12.578 15.2133 12.578 17.8786C12.578 20.544 14.7465 22.7124 17.4118 22.7124C20.0772 22.7124 22.2456 20.544 22.2456 17.8786C22.2456 15.2133 20.0772 13.0448 17.4118 13.0448Z" fill="#373737"/>
<path d="M24.6616 12.0791C25.4628 12.0791 26.1123 11.4296 26.1123 10.6284C26.1123 9.82724 25.4628 9.17773 24.6616 9.17773C23.8604 9.17773 23.2109 9.82724 23.2109 10.6284C23.2109 11.4296 23.8604 12.0791 24.6616 12.0791Z" fill="#373737"/>
<path d="M23.2121 30.4463H11.6111C7.88034 30.4463 4.84375 27.4106 4.84375 23.6789L4.84375 12.0779C4.84375 8.34617 7.88034 5.31055 11.6111 5.31055L23.2121 5.31055C26.9429 5.31055 29.9795 8.34617 29.9795 12.0779V23.6789C29.9795 27.4106 26.9429 30.4463 23.2121 30.4463ZM11.6111 7.24406C8.9457 7.24406 6.77727 9.4125 6.77727 12.0779L6.77727 23.6789C6.77727 26.3443 8.9457 28.5127 11.6111 28.5127H23.2121C25.8775 28.5127 28.0459 26.3443 28.0459 23.6789V12.0779C28.0459 9.4125 25.8775 7.24406 23.2121 7.24406L11.6111 7.24406Z" fill="#373737"/>
</svg>
