<svg width="64" height="38" viewBox="0 0 64 38" fill="none" xmlns="http://www.w3.org/2000/svg">
<path d="M48.3124 12.8846L53.5591 3.5716C54.0153 2.66373 53.6731 1.55085 52.8177 1.08228C51.9907 0.642984 50.9642 0.90656 50.451 1.72657L45.0902 11.2153C36.935 7.67165 27.7533 7.67165 19.5981 11.2153L14.2373 1.72657C13.6956 0.877273 12.5835 0.613697 11.7566 1.14085C10.9582 1.668 10.7015 2.7223 11.1292 3.5716L16.3759 12.8846C7.5364 18.0682 1.77644 27.4105 0.978027 37.8364H63.7103C62.9119 27.4105 57.1519 18.0682 48.3124 12.8846ZM18.0868 29.7827C16.1193 29.7827 14.5225 28.1426 14.5225 26.1219C14.5225 24.1012 16.1193 22.4611 18.0868 22.4611C20.0543 22.4611 21.6512 24.1012 21.6512 26.1219C21.6512 28.1426 20.0543 29.7827 18.0868 29.7827ZM46.6015 29.7827C44.634 29.7827 43.0371 28.1426 43.0371 26.1219C43.0371 24.1012 44.634 22.4611 46.6015 22.4611C48.569 22.4611 50.1658 24.1012 50.1658 26.1219C50.1658 28.1426 48.569 29.7827 46.6015 29.7827Z" fill="#0C0B0B"/>
</svg>
