<svg width="25" height="25" viewBox="0 0 36 35" fill="none" xmlns="http://www.w3.org/2000/svg">
<path d="M27.4305 34.9817L8.21297 35C3.98511 35.0038 0.523064 31.5485 0.51826 27.3207L0.500003 8.10311C0.49616 3.87524 3.95148 0.413201 8.17934 0.408397L27.3969 0.39014C31.6248 0.386296 35.0868 3.84161 35.0916 8.06948L35.1099 27.287C35.1147 31.5159 31.6584 34.9779 27.4305 34.9817Z" fill="url(#paint0_radial)"/>
<path d="M27.4305 34.9817L8.21297 35C3.98511 35.0038 0.523064 31.5485 0.51826 27.3207L0.500003 8.10311C0.49616 3.87524 3.95148 0.413201 8.17934 0.408397L27.3969 0.39014C31.6248 0.386296 35.0868 3.84161 35.0916 8.06948L35.1099 27.287C35.1147 31.5159 31.6584 34.9779 27.4305 34.9817Z" fill="url(#paint1_radial)"/>
<path d="M17.804 23.9244C14.3696 23.9244 11.5742 21.1299 11.5742 17.6946C11.5742 14.2593 14.3696 11.4648 17.804 11.4648C21.2384 11.4648 24.0338 14.2593 24.0338 17.6946C24.0338 21.1299 21.2384 23.9244 17.804 23.9244ZM17.804 13.2448C15.3504 13.2448 13.3542 15.241 13.3542 17.6946C13.3542 20.1483 15.3504 22.1445 17.804 22.1445C20.2576 22.1445 22.2538 20.1483 22.2538 17.6946C22.2538 15.241 20.2576 13.2448 17.804 13.2448Z" fill="white"/>
<path d="M24.675 10.8476C25.3536 10.8476 25.9037 10.2975 25.9037 9.61887C25.9037 8.94026 25.3536 8.39014 24.675 8.39014C23.9964 8.39014 23.4463 8.94026 23.4463 9.61887C23.4463 10.2975 23.9964 10.8476 24.675 10.8476Z" fill="white"/>
<path d="M24.1771 30.3901H11.7155C7.7081 30.3901 4.44629 27.2501 4.44629 23.3901V11.3901C4.44629 7.53014 7.7081 4.39014 11.7155 4.39014H24.1771C28.1845 4.39014 31.4463 7.53014 31.4463 11.3901V23.3901C31.4463 27.2501 28.1845 30.3901 24.1771 30.3901ZM11.7155 6.39014C8.85248 6.39014 6.52321 8.63314 6.52321 11.3901V23.3901C6.52321 26.1471 8.85248 28.3901 11.7155 28.3901H24.1771C27.0401 28.3901 29.3694 26.1471 29.3694 23.3901V11.3901C29.3694 8.63314 27.0401 6.39014 24.1771 6.39014H11.7155Z" fill="white"/>
<defs>
<radialGradient id="paint0_radial" cx="0" cy="0" r="1" gradientUnits="userSpaceOnUse" gradientTransform="translate(13.3662 35.025) scale(43.1424)">
<stop stop-color="#FFDD55"/>
<stop offset="0.328" stop-color="#FF543F"/>
<stop offset="0.348" stop-color="#FC5245"/>
<stop offset="0.504" stop-color="#E64771"/>
<stop offset="0.643" stop-color="#D53E91"/>
<stop offset="0.761" stop-color="#CC39A4"/>
<stop offset="0.841" stop-color="#C837AB"/>
</radialGradient>
<radialGradient id="paint1_radial" cx="0" cy="0" r="1" gradientUnits="userSpaceOnUse" gradientTransform="translate(6.06925 -0.0419646) scale(28.6466 19.0873)">
<stop stop-color="#4168C9"/>
<stop offset="0.999" stop-color="#4168C9" stop-opacity="0"/>
</radialGradient>
</defs>
</svg>
