<svg width="25" height="25" viewBox="0 0 36 35" fill="none" xmlns="http://www.w3.org/2000/svg">
<path d="M17.8049 0.390869C8.24741 0.390869 0.5 8.13828 0.5 17.6958C0.5 27.2533 8.24741 35.0007 17.8049 35.0007C27.3624 35.0007 35.1098 27.2533 35.1098 17.6958C35.1098 8.13828 27.3624 0.390869 17.8049 0.390869Z" fill="#0078D4"/>
<path opacity="0.05" d="M22.9963 27.2127V19.4254C22.9963 18.4711 22.2202 17.695 21.2658 17.695C20.3114 17.695 19.5353 18.4711 19.5353 19.4254V27.2127H14.3438V12.5035H19.5353V13.3921C20.4352 12.8141 21.4838 12.5035 22.5637 12.5035C25.6647 12.5035 28.1877 15.0265 28.1877 18.1276V27.2127H22.9963ZM8.28711 27.2127V12.5035H10.8534C9.36607 12.5035 8.28711 11.4115 8.28711 9.90688C8.28711 8.40309 9.38337 7.31201 10.8924 7.31201C12.3598 7.31201 13.4474 8.3953 13.4786 9.88958C13.4786 11.4072 12.3823 12.5035 10.8725 12.5035H13.4786V27.2127H8.28711Z" fill="black"/>
<path opacity="0.07" d="M23.4279 26.7803V19.4257C23.4279 18.2334 22.458 17.2626 21.2648 17.2626C20.0716 17.2626 19.1017 18.2334 19.1017 19.4257V26.7803H14.7755V12.9363H19.1017V14.2636C20.0448 13.4183 21.2752 12.9363 22.5627 12.9363C25.4258 12.9363 27.7541 15.2647 27.7541 18.1278V26.7803H23.4279ZM8.71875 26.7803V12.9363H13.045V26.7803H8.71875ZM10.8524 12.0711C9.61601 12.0711 8.71875 11.1609 8.71875 9.90712C8.71875 8.65425 9.63245 7.74487 10.8914 7.74487C12.1339 7.74487 13.019 8.63002 13.045 9.89847C13.045 11.1609 12.1304 12.0711 10.8715 12.0711H10.8524Z" fill="black"/>
<path d="M9.15234 13.3692H12.6133V26.3479H9.15234V13.3692ZM10.8725 11.6387H10.8534C9.82031 11.6387 9.15234 10.8686 9.15234 9.90736C9.15234 8.92531 9.84108 8.17773 10.8924 8.17773C11.9454 8.17773 12.5934 8.92531 12.6133 9.90736C12.6133 10.8686 11.9454 11.6387 10.8725 11.6387ZM27.3225 18.1281C27.3225 15.4994 25.1923 13.3692 22.5636 13.3692C20.9526 13.3692 19.531 14.1722 18.67 15.3973V13.3692H15.2091V26.3479H18.67V19.4259C18.67 17.9922 19.8321 16.8302 21.2658 16.8302C22.6995 16.8302 23.8615 17.9922 23.8615 19.4259V26.3479H27.3225C27.3225 26.3479 27.3225 18.4923 27.3225 18.1281Z" fill="white"/>
</svg>
