<svg width="25" height="25" viewBox="0 0 36 35" fill="none" xmlns="http://www.w3.org/2000/svg">
<path d="M17.8049 0.390625C8.24741 0.390625 0.5 8.13803 0.5 17.6955C0.5 26.3722 6.88464 33.5563 15.2126 34.8075C16.058 34.9347 16.9241 32.4047 17.8049 32.4047C18.6001 32.4047 19.3831 34.9468 20.1506 34.843C28.5988 33.6982 35.1098 26.4579 35.1098 17.6955C35.1098 8.13803 27.3624 0.390625 17.8049 0.390625Z" fill="url(#paint0_linear)"/>
<path opacity="0.05" d="M21.0131 15.2451C21.0131 14.013 21.277 12.5447 22.5333 12.5447H26.2392L26.2383 7.68462L26.195 6.94743L25.463 6.84879C24.937 6.77784 23.8424 6.62988 21.8238 6.62988C17.0053 6.62988 14.3515 9.49817 14.3515 14.7061V16.8675H10.0703V23.1474H14.3515V34.6534C15.4677 34.8793 16.6228 34.9995 17.8056 34.9995C18.9027 34.9995 19.9722 34.8862 21.0131 34.6906V23.1465H25.3679L26.3387 16.8666H21.0131V15.2451Z" fill="black"/>
<path opacity="0.05" d="M20.5795 15.2454C20.5795 14.0747 20.833 12.1123 22.5323 12.1123H25.8055V7.70995L25.783 7.32924L25.4084 7.27819C24.8918 7.20811 23.8181 7.06274 21.8237 7.06274C17.218 7.06274 14.7841 9.70607 14.7841 14.7063V17.3003H10.502V22.715H14.7832V34.7194C15.7661 34.8925 16.7715 34.9998 17.8046 34.9998C18.7512 34.9998 19.6736 34.9029 20.5795 34.7567V22.7142H24.9957L25.8324 17.2995H20.5786V15.2454H20.5795Z" fill="black"/>
<path d="M20.1468 22.2825H24.6253L25.3288 17.7331H20.1468V15.2463C20.1468 13.3566 20.7646 11.6807 22.5323 11.6807H25.3729V7.71092C24.8737 7.64343 23.8181 7.49634 21.8237 7.49634C17.6584 7.49634 15.2167 9.69579 15.2167 14.7073V17.7339H10.9346V22.2834H15.2158V34.8078C16.0637 34.9341 16.9229 35.0007 17.8046 35.0007C18.6015 35.0007 19.3794 34.9471 20.1468 34.8433V22.2825Z" fill="white"/>
<defs>
<linearGradient id="paint0_linear" x1="5.68541" y1="5.57604" x2="32.181" y2="32.0716" gradientUnits="userSpaceOnUse">
<stop stop-color="#2AA4F4"/>
<stop offset="1" stop-color="#007AD9"/>
</linearGradient>
</defs>
</svg>
