<svg width="25" height="25" viewBox="0 0 36 35" fill="none" xmlns="http://www.w3.org/2000/svg">
<path d="M17.8049 0.390625C8.24741 0.390625 0.5 8.13803 0.5 17.6955C0.5 25.385 5.51929 31.8951 12.4577 34.149H23.1521C30.0905 31.8951 35.1098 25.385 35.1098 17.6955C35.1098 8.13803 27.3624 0.390625 17.8049 0.390625Z" fill="url(#paint0_linear)"/>
<path opacity="0.05" d="M23.0061 33.2659L22.9974 28.2492C22.9974 27.4368 22.8071 26.6433 22.4419 25.9243C27.3228 24.944 29.6979 22.0584 29.6979 17.1187C29.6979 15.1676 29.1225 13.4449 27.9882 11.9965C28.0747 11.7222 28.1387 11.4384 28.1785 11.1476C28.3412 9.96313 28.1586 9.18873 28.0115 8.56575L27.9882 8.46539C27.8272 7.77665 27.6343 7.28519 27.6265 7.26443L27.5304 7.02043L27.4344 6.77643L27.1731 6.74874L26.9109 6.72105C26.9109 6.72105 26.7387 6.70288 26.4774 6.70288C26.1149 6.70288 25.5776 6.73922 25.0697 6.91141L24.9001 6.96851C24.2598 7.18396 23.655 7.38816 22.8088 7.89346C22.5613 8.04142 22.2905 8.21014 22.0007 8.39876C20.6907 8.07429 19.2812 7.90903 17.8059 7.90903C16.316 7.90903 14.8944 8.07516 13.5758 8.40309C13.2824 8.21273 13.0099 8.04228 12.7607 7.89346C11.9145 7.38816 11.3097 7.18482 10.6694 6.96851L10.4998 6.91141C9.99365 6.73922 9.45546 6.70288 9.09293 6.70288C8.83162 6.70288 8.65944 6.72105 8.65944 6.72105L8.39813 6.74874L8.13856 6.77556L8.04165 7.0187L7.94388 7.26356C7.93523 7.28606 7.74228 7.77752 7.58134 8.46712L7.55798 8.56662C7.41089 9.18873 7.22832 9.96399 7.39099 11.1476C7.43252 11.447 7.49914 11.7403 7.59 12.0224C6.47816 13.4639 5.91488 15.1771 5.91488 17.1187C5.91488 22.0463 8.29257 24.9301 13.1803 25.9182C13.0125 26.254 12.8818 26.6087 12.7893 26.9773C12.6188 27.0353 12.4622 27.0742 12.3238 27.0958C12.1178 27.127 11.9024 27.1426 11.6843 27.1426C11.0908 27.1426 10.6244 27.0266 10.4427 26.9185C10.1719 26.7575 9.68822 26.2894 9.21925 25.605C8.81864 25.021 8.19394 24.257 7.49568 23.9377C6.89174 23.6617 6.25233 23.5033 5.7401 23.5033C5.6207 23.5033 5.51081 23.512 5.41477 23.5276C4.96744 23.5985 4.59365 23.8443 4.39032 24.2025C4.21467 24.5114 4.18699 24.8713 4.31418 25.1897C4.50367 25.6639 5.0505 26.042 5.4762 26.2756C5.68559 26.3907 6.13811 26.8112 6.40201 27.2352C6.60016 27.5536 6.69187 27.7803 6.81906 28.0935C6.89434 28.2795 6.9774 28.482 7.08988 28.7268C7.49655 29.6111 8.76586 30.3916 8.90949 30.4772C9.60688 30.8951 10.7793 31.0293 11.6411 31.0682L11.7475 31.0708H11.7484C11.956 31.0708 12.2416 31.0509 12.6171 31.0093V33.2702C12.6188 33.7279 12.1524 33.8318 11.5355 33.8223L12.0088 33.9815C13.8215 34.6295 15.7683 34.9999 17.8059 34.9999C19.8436 34.9999 21.7904 34.6295 23.6057 33.9823L24.214 33.7556C23.5988 33.7349 23.0113 33.6345 23.0061 33.2659Z" fill="black"/>
<path opacity="0.07" d="M23.6727 33.9592C23.3215 33.9999 22.5644 33.8649 22.5644 33.2713V28.2495C22.5644 27.3029 22.2806 26.3883 21.7545 25.6087C26.8724 24.7807 29.264 22.0673 29.264 17.1189C29.264 15.1834 28.6704 13.4901 27.4997 12.0815C27.6183 11.7657 27.7013 11.4325 27.7489 11.089C27.9003 9.98499 27.7351 9.28415 27.5897 8.6655L27.5663 8.56513C27.4123 7.90668 27.2306 7.4429 27.2228 7.42387L27.1268 7.17987L26.8646 7.15218C26.8646 7.15218 26.7106 7.13574 26.4761 7.13574C26.1465 7.13574 25.6593 7.16776 25.2077 7.32177L25.0381 7.37888C24.4203 7.5874 23.8363 7.78381 23.0299 8.26489C22.7426 8.43621 22.4225 8.63781 22.0772 8.86537C20.7508 8.5184 19.3154 8.34189 17.8055 8.34189C16.281 8.34189 14.8334 8.51927 13.4975 8.86969C13.1488 8.6404 12.8269 8.43794 12.5379 8.26489C11.7315 7.78381 11.1475 7.58654 10.5297 7.37888L10.3601 7.32177C9.90929 7.16862 9.42129 7.13574 9.09163 7.13574C8.85715 7.13574 8.70314 7.15218 8.70314 7.15218L8.44183 7.17987L8.34406 7.42473C8.33627 7.44377 8.15457 7.90754 8.00056 8.56599L7.9772 8.66636C7.83097 9.28501 7.66571 9.98499 7.81799 11.089C7.86645 11.4412 7.95297 11.7821 8.07583 12.1048C6.92765 13.5065 6.34621 15.1912 6.34621 17.1189C6.34621 22.0534 8.73948 24.766 13.8617 25.6035C13.52 26.114 13.2811 26.6894 13.1583 27.3029C12.8728 27.4154 12.614 27.4898 12.3874 27.5244C12.1598 27.559 11.9227 27.5763 11.683 27.5763C11.086 27.5763 10.5124 27.4647 10.2208 27.2916C9.84007 27.0658 9.30621 26.5008 8.86061 25.851C8.55778 25.4097 7.9547 24.6249 7.31355 24.3325C6.76412 24.0816 6.19047 23.9371 5.73794 23.9371C5.64277 23.9371 5.55624 23.944 5.4801 23.9561C5.16342 24.0063 4.90212 24.1742 4.76368 24.4182C4.65292 24.612 4.63475 24.8361 4.71263 25.0307C4.86751 25.4184 5.44116 25.7662 5.68084 25.8977C5.97069 26.0569 6.476 26.5415 6.76585 27.0087C6.98303 27.3583 7.08599 27.6118 7.21665 27.9319C7.29019 28.1127 7.37066 28.31 7.47968 28.548C7.76608 29.1701 8.65036 29.8216 9.12797 30.108C9.78037 30.4991 10.9917 30.6081 11.6562 30.6375L11.7523 30.6393C12.011 30.6393 12.4445 30.6003 13.0458 30.5225V33.2713C13.0458 33.9454 12.1883 33.9722 11.9781 33.9722C11.9513 33.9722 12.4133 34.1314 12.4133 34.1314C14.1118 34.6886 15.921 35.0001 17.8055 35.0001C19.69 35.0001 21.4992 34.6886 23.1969 34.1323C23.1969 34.1323 23.6996 33.9557 23.6727 33.9592Z" fill="black"/>
<path d="M28.8319 17.1193C28.8319 15.1206 28.1552 13.4628 27.0001 12.1632C27.1256 11.882 27.2563 11.5047 27.3212 11.0306C27.47 9.949 27.2943 9.30006 27.1455 8.66497C26.9967 8.02988 26.821 7.58341 26.821 7.58341C26.821 7.58341 26.0233 7.50208 25.3475 7.73224C24.6718 7.96239 24.0903 8.13804 23.2519 8.63815C22.8599 8.87176 22.4654 9.12788 22.153 9.33554C20.818 8.96521 19.3496 8.77486 17.8052 8.77486C16.2469 8.77486 14.7656 8.96608 13.421 9.339C13.1078 9.13047 12.7106 8.87263 12.3161 8.63728C11.4776 8.13717 10.8962 7.96153 10.2204 7.73137C9.54469 7.50122 8.74693 7.58255 8.74693 7.58255C8.74693 7.58255 8.57129 8.02902 8.42247 8.66411C8.27364 9.2992 8.098 9.94813 8.24682 11.0297C8.31345 11.516 8.44842 11.9001 8.57734 12.1831C7.44387 13.4749 6.77937 15.1223 6.77937 17.1184C6.77937 22.2952 9.57584 24.6582 14.6713 25.282C14.0768 25.9102 13.678 26.7148 13.5439 27.6104C13.209 27.7575 12.8231 27.8959 12.4519 27.9513C11.4967 28.0958 10.4869 27.9513 10.0007 27.6632C9.5144 27.375 8.93729 26.7261 8.50466 26.0945C8.13953 25.5615 7.6126 24.9428 7.13498 24.7248C6.50422 24.4367 5.89076 24.3285 5.54899 24.3821C5.20635 24.4367 5.04455 24.6884 5.11636 24.8693C5.18818 25.0493 5.53082 25.3201 5.89162 25.5182C6.25243 25.7164 6.81138 26.2571 7.13585 26.7797C7.49752 27.3629 7.56847 27.6995 7.87477 28.3657C8.09021 28.8347 8.8274 29.4205 9.3526 29.7354C9.8034 30.0062 10.7041 30.1603 11.6784 30.2044C12.015 30.22 12.8101 30.1213 13.4807 30.0261V33.2708C13.4807 33.8237 12.9745 34.2442 12.4502 34.1473C14.1331 34.7132 15.9302 35.0004 17.8052 35.0004C19.6793 35.0004 21.4764 34.7132 23.1611 34.149C22.6376 34.2451 22.1314 33.8246 22.1314 33.2717V28.2498C22.1314 27.0999 21.6754 26.0607 20.9434 25.2863C26.0017 24.6789 28.8319 22.3722 28.8319 17.1193ZM6.76379 25.2465C6.63054 25.1782 6.55873 25.0518 6.60372 24.9627C6.64871 24.8736 6.79407 24.8572 6.92732 24.9255C7.06057 24.9939 7.13239 25.1202 7.08739 25.2093C7.0424 25.2984 6.89704 25.3149 6.76379 25.2465ZM7.81247 25.8998C7.74238 25.9759 7.59183 25.9517 7.47589 25.8461C7.35994 25.7406 7.32274 25.5926 7.39282 25.5165C7.46291 25.4403 7.61346 25.4646 7.7294 25.5701C7.84535 25.6757 7.88255 25.8236 7.81247 25.8998ZM8.46486 26.9813C8.37661 27.0436 8.22692 26.9857 8.13088 26.8516C8.03484 26.7174 8.02878 26.5574 8.11703 26.4951C8.20529 26.4328 8.35498 26.4908 8.45102 26.6249C8.5462 26.759 8.55312 26.919 8.46486 26.9813ZM9.40192 27.7955C9.34222 27.8924 9.17263 27.8968 9.02381 27.8059C8.87499 27.7151 8.80231 27.5628 8.86201 27.4659C8.92171 27.369 9.0913 27.3646 9.24012 27.4555C9.38894 27.5463 9.46163 27.6986 9.40192 27.7955ZM10.2879 28.5924C10.1036 28.5699 9.96693 28.4549 9.9825 28.3355C9.99721 28.2161 10.159 28.1382 10.3424 28.1607C10.5267 28.1832 10.6635 28.2982 10.6479 28.4177C10.6332 28.5362 10.4722 28.6149 10.2879 28.5924ZM11.7165 28.7992C11.52 28.788 11.3669 28.6755 11.3747 28.5492C11.3825 28.4228 11.5477 28.3285 11.7441 28.3398C11.9406 28.351 12.0937 28.4635 12.0859 28.5898C12.0781 28.717 11.9129 28.8105 11.7165 28.7992ZM13.0645 28.6642C12.8551 28.6642 12.6855 28.5552 12.6855 28.4211C12.6855 28.287 12.8551 28.178 13.0645 28.178C13.2739 28.178 13.4435 28.287 13.4435 28.4211C13.4435 28.5552 13.273 28.6642 13.0645 28.6642Z" fill="white"/>
<defs>
<linearGradient id="paint0_linear" x1="0.5" y1="17.2698" x2="35.1098" y2="17.2698" gradientUnits="userSpaceOnUse">
<stop stop-color="#4C4C4C"/>
<stop offset="1" stop-color="#343434"/>
</linearGradient>
</defs>
</svg>
