<svg width="22" height="100" viewBox="0 0 327 115" fill="none" xmlns="http://www.w3.org/2000/svg">
<path d="M265.88 64.515C274.263 64.515 281.06 57.7187 281.06 49.335C281.06 40.9513 274.263 34.155 265.88 34.155C257.496 34.155 250.7 40.9513 250.7 49.335C250.7 57.7187 257.496 64.515 265.88 64.515Z" fill="#EA4335" fill-opacity="0.5"/>
<path d="M301.933 75.8998C307.173 75.8998 311.42 71.6521 311.42 66.4123C311.42 61.1725 307.173 56.9248 301.933 56.9248C296.693 56.9248 292.445 61.1725 292.445 66.4123C292.445 71.6521 296.693 75.8998 301.933 75.8998Z" fill="#2196F3" fill-opacity="0.5"/>
<path d="M303.83 45.5399C316.405 45.5399 326.599 35.3455 326.599 22.77C326.599 10.1945 316.405 0 303.83 0C291.254 0 281.06 10.1945 281.06 22.77C281.06 35.3455 291.254 45.5399 303.83 45.5399Z" fill="#089D57" fill-opacity="0.5"/>
<path d="M10.5143 76.5571C16.3212 76.5571 21.0286 71.8497 21.0286 66.0428C21.0286 60.236 16.3212 55.5286 10.5143 55.5286C4.70741 55.5286 0 60.236 0 66.0428C0 71.8497 4.70741 76.5571 10.5143 76.5571Z" fill="#089D57" fill-opacity="0.5"/>
<path d="M22.3432 115C31.2349 115 38.4432 107.792 38.4432 98.9C38.4432 90.0083 31.2349 82.8 22.3432 82.8C13.4514 82.8 6.24316 90.0083 6.24316 98.9C6.24316 107.792 13.4514 115 22.3432 115Z" fill="#FFC107" fill-opacity="0.5"/>
</svg>
