<svg width="30" height="30" viewBox="0 0 36 36" fill="none" xmlns="http://www.w3.org/2000/svg">
<path d="M18.3464 0.644531C8.73038 0.644531 0.935547 8.43936 0.935547 18.0554C0.935547 25.7919 5.98556 32.3418 12.9664 34.6096H23.7263C30.7072 32.3418 35.7572 25.7919 35.7572 18.0554C35.7572 8.43936 27.9624 0.644531 18.3464 0.644531Z" fill="#EAEAEA"/>
<path opacity="0.05" d="M23.579 33.7227L23.5703 28.6753C23.5703 27.8579 23.3788 27.0596 23.0114 26.3362C27.9221 25.3498 30.3118 22.4466 30.3118 17.4767C30.3118 15.5136 29.7328 13.7803 28.5916 12.323C28.6786 12.0471 28.743 11.7615 28.7831 11.469C28.9467 10.2773 28.7631 9.49814 28.6151 8.87135L28.5916 8.77036C28.4296 8.07741 28.2355 7.58295 28.2277 7.56205L28.131 7.31656L28.0344 7.07107L27.7715 7.04321L27.5077 7.01535C27.5077 7.01535 27.3345 6.99707 27.0716 6.99707C26.7068 6.99707 26.1662 7.03363 25.6552 7.20687L25.4846 7.26433C24.8404 7.48109 24.2319 7.68654 23.3805 8.19494C23.1315 8.3438 22.859 8.51355 22.5674 8.70333C21.2494 8.37688 19.8313 8.21061 18.347 8.21061C16.848 8.21061 15.4177 8.37775 14.0909 8.70769C13.7958 8.51617 13.5216 8.34467 13.2709 8.19494C12.4195 7.68654 11.811 7.48196 11.1668 7.26433L10.9962 7.20687C10.4869 7.03363 9.94543 6.99707 9.58067 6.99707C9.31777 6.99707 9.14453 7.01535 9.14453 7.01535L8.88163 7.04321L8.62046 7.0702L8.52296 7.31482L8.42459 7.56118C8.41589 7.58382 8.22175 8.07828 8.05983 8.77211L8.03633 8.87222C7.88834 9.49814 7.70465 10.2781 7.86831 11.469C7.9101 11.7703 7.97713 12.0654 8.06854 12.3492C6.94989 13.7995 6.38317 15.5232 6.38317 17.4767C6.38317 22.4344 8.77542 25.3359 13.6931 26.3301C13.5242 26.6678 13.3928 27.0248 13.2996 27.3956C13.1281 27.4539 12.9706 27.4931 12.8313 27.5149C12.6241 27.5462 12.4073 27.5619 12.1879 27.5619C11.5908 27.5619 11.1215 27.4452 10.9387 27.3364C10.6662 27.1745 10.1796 26.7035 9.70777 26.0149C9.30471 25.4273 8.67618 24.6586 7.97365 24.3374C7.36601 24.0597 6.72268 23.9004 6.20732 23.9004C6.08719 23.9004 5.97663 23.9091 5.88 23.9248C5.42993 23.9961 5.05385 24.2434 4.84928 24.6038C4.67256 24.9146 4.6447 25.2767 4.77267 25.5971C4.96332 26.0741 5.5135 26.4545 5.94181 26.6896C6.15248 26.8054 6.60777 27.2285 6.87329 27.655C7.07264 27.9754 7.16492 28.2035 7.29289 28.5186C7.36862 28.7058 7.4522 28.9095 7.56537 29.1558C7.97452 30.0455 9.25161 30.8308 9.39612 30.9169C10.0978 31.3374 11.2774 31.4724 12.1444 31.5115L12.2515 31.5141H12.2524C12.4613 31.5141 12.7486 31.4941 13.1264 31.4523V33.7271C13.1281 34.1876 12.6589 34.292 12.0382 34.2825L12.5144 34.4426C14.3382 35.0947 16.2969 35.4673 18.347 35.4673C20.3972 35.4673 22.3559 35.0947 24.1823 34.4435L24.7943 34.2154C24.1753 34.1945 23.5842 34.0936 23.579 33.7227Z" fill="#EAEAEA"/>
<path opacity="0.07" d="M24.2491 34.4203C23.8956 34.4612 23.1339 34.3254 23.1339 33.7282V28.6756C23.1339 27.7232 22.8484 26.803 22.3191 26.0187C27.4683 25.1856 29.8745 22.4556 29.8745 17.4769C29.8745 15.5295 29.2773 13.8259 28.0995 12.4086C28.2187 12.0909 28.3023 11.7557 28.3502 11.4101C28.5025 10.2993 28.3363 9.59417 28.19 8.97174L28.1665 8.87075C28.0115 8.20827 27.8287 7.74166 27.8209 7.72251L27.7243 7.47702L27.4605 7.44916C27.4605 7.44916 27.3055 7.43262 27.0696 7.43262C26.7379 7.43262 26.2478 7.46483 25.7934 7.61978L25.6228 7.67724C25.0012 7.88704 24.4136 8.08465 23.6022 8.56867C23.3132 8.74104 22.9911 8.94388 22.6438 9.17283C21.3092 8.82374 19.865 8.64615 18.3459 8.64615C16.812 8.64615 15.3556 8.82461 14.0115 9.17718C13.6607 8.94649 13.3368 8.74278 13.0461 8.56867C12.2347 8.08465 11.6471 7.88617 11.0255 7.67724L10.8549 7.61978C10.4014 7.4657 9.91037 7.43262 9.57869 7.43262C9.34277 7.43262 9.18782 7.44916 9.18782 7.44916L8.92491 7.47702L8.82654 7.72338C8.81871 7.74253 8.63589 8.20914 8.48094 8.87162L8.45743 8.97261C8.31031 9.59504 8.14404 10.2993 8.29725 11.4101C8.346 11.7644 8.43306 12.1074 8.55668 12.4321C7.40147 13.8424 6.81646 15.5374 6.81646 17.4769C6.81646 22.4416 9.22438 25.1708 14.378 26.0135C14.0341 26.5271 13.7939 27.106 13.6702 27.7232C13.383 27.8364 13.1227 27.9112 12.8946 27.9461C12.6656 27.9809 12.4271 27.9983 12.186 27.9983C11.5853 27.9983 11.0081 27.886 10.7147 27.7119C10.3317 27.4847 9.79459 26.9162 9.34626 26.2624C9.04157 25.8185 8.4348 25.0289 7.78973 24.7346C7.23693 24.4822 6.65976 24.3368 6.20447 24.3368C6.10871 24.3368 6.02166 24.3438 5.94505 24.356C5.62643 24.4064 5.36353 24.5753 5.22424 24.8208C5.11281 25.0158 5.09453 25.2413 5.17288 25.4372C5.32871 25.8272 5.90588 26.1771 6.14702 26.3094C6.43865 26.4696 6.94704 26.9571 7.23867 27.4272C7.45718 27.7789 7.56078 28.034 7.69223 28.3561C7.76622 28.538 7.84718 28.7365 7.95687 28.9759C8.24502 29.6018 9.13471 30.2574 9.61525 30.5455C10.2716 30.939 11.4904 31.0487 12.159 31.0783L12.2556 31.08C12.5159 31.08 12.952 31.0408 13.5571 30.9625V33.7282C13.5571 34.4064 12.6944 34.4333 12.4828 34.4333C12.4558 34.4333 12.9207 34.5935 12.9207 34.5935C14.6296 35.1542 16.4499 35.4676 18.3459 35.4676C20.242 35.4676 22.0623 35.1542 23.7703 34.5944C23.7703 34.5944 24.276 34.4168 24.2491 34.4203Z" fill="#EAEAEA"/>
<path d="M29.44 17.4754C29.44 15.4644 28.7593 13.7964 27.5971 12.4889C27.7233 12.206 27.8548 11.8264 27.9201 11.3494C28.0698 10.2612 27.8931 9.60827 27.7434 8.96929C27.5936 8.33031 27.4169 7.88111 27.4169 7.88111C27.4169 7.88111 26.6143 7.79928 25.9344 8.03085C25.2545 8.26241 24.6695 8.43913 23.8259 8.9423C23.4316 9.17735 23.0346 9.43503 22.7203 9.64396C21.3771 9.27137 19.8998 9.07985 18.3459 9.07985C16.778 9.07985 15.2876 9.27224 13.9348 9.64744C13.6197 9.43764 13.2201 9.17822 12.8231 8.94143C11.9796 8.43826 11.3946 8.26154 10.7147 8.02998C10.0348 7.79841 9.23215 7.88024 9.23215 7.88024C9.23215 7.88024 9.05543 8.32944 8.9057 8.96842C8.75596 9.6074 8.57924 10.2603 8.72898 11.3485C8.79601 11.8377 8.93181 12.2242 9.06152 12.5089C7.92111 13.8086 7.25254 15.4661 7.25254 17.4745C7.25254 22.6829 10.0661 25.0604 15.1928 25.688C14.5947 26.3201 14.1934 27.1297 14.0584 28.0307C13.7215 28.1787 13.3333 28.318 12.9598 28.3737C11.9987 28.519 10.9828 28.3737 10.4936 28.0838C10.0043 27.7939 9.42367 27.141 8.9884 26.5055C8.62103 25.9692 8.09087 25.3468 7.61033 25.1274C6.97571 24.8375 6.35849 24.7287 6.01463 24.7827C5.66989 24.8375 5.5071 25.0909 5.57936 25.2728C5.65161 25.4539 5.99635 25.7264 6.35936 25.9257C6.72238 26.1251 7.28475 26.6691 7.6112 27.195C7.97509 27.7817 8.04647 28.1203 8.35464 28.7907C8.57141 29.2625 9.31311 29.8518 9.84153 30.1687C10.2951 30.4412 11.2013 30.5962 12.1815 30.6406C12.5202 30.6562 13.3202 30.557 13.9949 30.4612V33.7258C13.9949 34.282 13.4856 34.7051 12.9581 34.6076C14.6513 35.177 16.4594 35.466 18.3459 35.466C20.2314 35.466 22.0396 35.177 23.7345 34.6094C23.2078 34.706 22.6986 34.2829 22.6986 33.7266V28.674C22.6986 27.5171 22.2398 26.4715 21.5033 25.6924C26.5925 25.0813 29.44 22.7604 29.44 17.4754ZM7.23687 25.6524C7.10281 25.5836 7.03055 25.4565 7.07582 25.3668C7.12109 25.2771 7.26734 25.2606 7.4014 25.3294C7.53546 25.3982 7.60772 25.5253 7.56245 25.6149C7.51718 25.7046 7.37093 25.7211 7.23687 25.6524ZM8.29197 26.3096C8.22145 26.3862 8.06998 26.3618 7.95332 26.2556C7.83667 26.1494 7.79924 26.0006 7.86975 25.924C7.94027 25.8474 8.09174 25.8717 8.20839 25.9779C8.32505 26.0841 8.36248 26.233 8.29197 26.3096ZM8.94835 27.3978C8.85956 27.4605 8.70896 27.4021 8.61232 27.2672C8.51569 27.1323 8.5096 26.9712 8.5984 26.9085C8.68719 26.8459 8.8378 26.9042 8.93443 27.0391C9.03018 27.1741 9.03715 27.3351 8.94835 27.3978ZM9.89115 28.217C9.83108 28.3145 9.66046 28.3188 9.51072 28.2274C9.36099 28.136 9.28786 27.9828 9.34793 27.8853C9.408 27.7878 9.57863 27.7834 9.72836 27.8748C9.87809 27.9663 9.95122 28.1195 9.89115 28.217ZM10.7826 29.0187C10.5972 28.9961 10.4596 28.8803 10.4753 28.7602C10.4901 28.6401 10.6529 28.5617 10.8374 28.5843C11.0229 28.607 11.1604 28.7228 11.1447 28.8429C11.1299 28.9622 10.968 29.0414 10.7826 29.0187ZM12.2198 29.2268C12.0222 29.2155 11.8682 29.1023 11.876 28.9752C11.8838 28.8481 12.0501 28.7532 12.2477 28.7645C12.4453 28.7759 12.5994 28.889 12.5916 29.0161C12.5837 29.1441 12.4175 29.2381 12.2198 29.2268ZM13.5762 29.091C13.3655 29.091 13.1949 28.9813 13.1949 28.8464C13.1949 28.7114 13.3655 28.6018 13.5762 28.6018C13.7868 28.6018 13.9575 28.7114 13.9575 28.8464C13.9575 28.9813 13.786 29.091 13.5762 29.091Z" fill="#373737"/>
</svg>
