<svg width="30" height="30" viewBox="0 0 35 35" fill="none" xmlns="http://www.w3.org/2000/svg">
<path d="M17.4108 0C7.79483 0 0 7.79483 0 17.4108C0 27.0268 7.79483 34.8217 17.4108 34.8217C27.0268 34.8217 34.8217 27.0268 34.8217 17.4108C34.8217 7.79483 27.0268 0 17.4108 0Z" fill="#EAEAEA"/>
<path opacity="0.05" d="M22.6351 26.9873V19.1524C22.6351 18.1922 21.8543 17.4113 20.8941 17.4113C19.9339 17.4113 19.153 18.1922 19.153 19.1524V26.9873H13.9297V12.1881H19.153V13.0821C20.0583 12.5006 21.1134 12.1881 22.1999 12.1881C25.3199 12.1881 27.8584 14.7266 27.8584 17.8466V26.9873H22.6351ZM7.83594 26.9873L7.83594 12.1881H10.418C8.9215 12.1881 7.83594 11.0895 7.83594 9.5756C7.83594 8.0626 8.93891 6.96484 10.4571 6.96484C11.9336 6.96484 13.0278 8.05476 13.0592 9.55819C13.0592 11.0851 11.9562 12.1881 10.4371 12.1881H13.0592V26.9873H7.83594Z" fill="#EAEAEA"/>
<path opacity="0.07" d="M23.0687 26.5533V19.1537C23.0687 17.9541 22.0929 16.9773 20.8924 16.9773C19.6919 16.9773 18.716 17.9541 18.716 19.1537V26.5533H14.3633V12.6246H18.716V13.96C19.6649 13.1095 20.9028 12.6246 22.1982 12.6246C25.0788 12.6246 27.4215 14.9672 27.4215 17.8479V26.5533H23.0687ZM8.26953 26.5533L8.26953 12.6246H12.6222V26.5533H8.26953ZM10.4163 11.7541C9.17228 11.7541 8.26953 10.8383 8.26953 9.57685C8.26953 8.31631 9.18882 7.40137 10.4555 7.40137C11.7056 7.40137 12.5961 8.29193 12.6222 9.56815C12.6222 10.8383 11.7021 11.7541 10.4354 11.7541H10.4163Z" fill="#EAEAEA"/>
<path d="M8.70508 13.0582H12.1872V26.1163H8.70508L8.70508 13.0582ZM10.4357 11.3171H10.4166C9.37714 11.3171 8.70508 10.5423 8.70508 9.57517C8.70508 8.58711 9.39803 7.83496 10.4557 7.83496C11.5152 7.83496 12.1672 8.58711 12.1872 9.57517C12.1872 10.5423 11.5152 11.3171 10.4357 11.3171ZM26.9865 17.8462C26.9865 15.2015 24.8432 13.0582 22.1985 13.0582C20.5775 13.0582 19.1472 13.8661 18.281 15.0988V13.0582H14.7989V26.1163H18.281V19.152C18.281 17.7095 19.4502 16.5404 20.8927 16.5404C22.3352 16.5404 23.5043 17.7095 23.5043 19.152V26.1163H26.9865C26.9865 26.1163 26.9865 18.2127 26.9865 17.8462Z" fill="#373737"/>
</svg>
