<svg width="44" height="43" viewBox="0 0 44 43" fill="none" xmlns="http://www.w3.org/2000/svg">
<path d="M16.0718 18.5116C15.4705 18.5116 14.8826 18.69 14.3826 19.0241C13.8826 19.3582 13.4928 19.833 13.2627 20.3886C13.0326 20.9442 12.9724 21.5556 13.0897 22.1454C13.207 22.7352 13.4966 23.277 13.9218 23.7022C14.3471 24.1275 14.8888 24.4171 15.4787 24.5344C16.0685 24.6517 16.6798 24.5915 17.2354 24.3614C17.791 24.1312 18.2659 23.7415 18.6 23.2415C18.9341 22.7415 19.1124 22.1536 19.1124 21.5522C19.1165 21.1518 19.0406 20.7546 18.8893 20.3838C18.7379 20.0131 18.5141 19.6763 18.2309 19.3931C17.9478 19.11 17.611 18.8862 17.2402 18.7348C16.8695 18.5834 16.4723 18.5076 16.0718 18.5116Z" fill="#232121"/>
<path d="M22.153 35.2351C20.3969 35.2367 18.6678 34.803 17.1203 33.9729C15.5728 33.1427 14.2552 31.942 13.2852 30.4781L15.818 28.7952C16.5113 29.8407 17.4527 30.6984 18.5581 31.2917C19.6634 31.885 20.8985 32.1955 22.153 32.1955C23.4076 32.1955 24.6426 31.885 25.748 31.2917C26.8534 30.6984 27.7948 29.8407 28.4881 28.7952L31.0209 30.4781C30.0509 31.942 28.7333 33.1427 27.1858 33.9729C25.6383 34.803 23.9091 35.2367 22.153 35.2351Z" fill="#232121"/>
<path d="M28.2342 18.5116C27.6328 18.5116 27.045 18.69 26.5449 19.0241C26.0449 19.3582 25.6552 19.833 25.4251 20.3886C25.1949 20.9442 25.1347 21.5556 25.252 22.1454C25.3694 22.7352 25.6589 23.277 26.0842 23.7022C26.5094 24.1275 27.0512 24.4171 27.641 24.5344C28.2308 24.6517 28.8422 24.5915 29.3978 24.3614C29.9534 24.1312 30.4283 23.7415 30.7624 23.2415C31.0965 22.7415 31.2748 22.1536 31.2748 21.5522C31.2789 21.1518 31.203 20.7546 31.0516 20.3838C30.9003 20.0131 30.6764 19.6763 30.3933 19.3931C30.1101 19.11 29.7733 18.8862 29.4026 18.7348C29.0318 18.5834 28.6346 18.5076 28.2342 18.5116Z" fill="#232121"/>
<path d="M43.4372 21.5522V18.5116H40.3966V12.4304C40.3946 10.8182 39.7533 9.27262 38.6133 8.13261C37.4732 6.99261 35.9276 6.35126 34.3154 6.34925H31.2748V0.268066H28.2342V6.34925H16.0719V0.268066H13.0313V6.34925H9.99068C8.37846 6.35126 6.83286 6.99261 5.69285 8.13261C4.55284 9.27262 3.9115 10.8182 3.90949 12.4304V18.5116H0.868896V21.5522H3.90949V29.1537H0.868896V32.1943H3.90949V36.7552C3.9115 38.3674 4.55284 39.913 5.69285 41.053C6.83286 42.193 8.37846 42.8344 9.99068 42.8364H34.3154C35.9276 42.8344 37.4732 42.193 38.6133 41.053C39.7533 39.913 40.3946 38.3674 40.3966 36.7552V32.1943H43.4372V29.1537H40.3966V21.5522H43.4372ZM37.356 36.7552C37.3552 37.5614 37.0346 38.3343 36.4646 38.9043C35.8945 39.4744 35.1216 39.795 34.3154 39.7958H9.99068C9.18451 39.795 8.41159 39.4744 7.84154 38.9043C7.27149 38.3343 6.95089 37.5614 6.95008 36.7552V12.4304C6.95089 11.6243 7.27149 10.8514 7.84154 10.2813C8.41159 9.71126 9.18451 9.39065 9.99068 9.38985H34.3154C35.1216 9.39065 35.8945 9.71126 36.4646 10.2813C37.0346 10.8514 37.3552 11.6243 37.356 12.4304V36.7552Z" fill="#232121"/>
</svg>
